<svg id="Group_171" data-name="Group 171" xmlns="http://www.w3.org/2000/svg" width="49.089" height="49.089" viewBox="0 0 49.089 49.089">
  <circle id="Ellipse_14" data-name="Ellipse 14" cx="24.544" cy="24.544" r="24.544" transform="translate(0 0)" fill="#e56d21"/>
  <g id="bx-bus" transform="translate(10.834 10.503)">
    <path id="Path_17" data-name="Path 17" d="M29.473,12.009V9.362A5.367,5.367,0,0,0,24.112,4h-13.4A5.367,5.367,0,0,0,5.346,9.362V12.04l-.1.005A1.34,1.34,0,0,0,4,13.383v2.681A1.34,1.34,0,0,0,5.34,17.4h.005v8.043a2.673,2.673,0,0,0,1.335,2.306v1.716a1.34,1.34,0,0,0,1.34,1.34h1.34a1.34,1.34,0,0,0,1.34-1.34v-1.34h13.4v1.34a1.34,1.34,0,0,0,1.34,1.34h1.34a1.34,1.34,0,0,0,1.34-1.34v-1.71a2.673,2.673,0,0,0,1.346-2.311V17.4a1.34,1.34,0,0,0,1.34-1.34v-2.6a1.349,1.349,0,0,0-.1-.61A1.4,1.4,0,0,0,29.473,12.009ZM26.8,25.447H8.027v-6.7H26.794ZM16.069,10.7v5.362H8.027V10.7Zm10.723,0v5.362H18.75V10.7ZM10.707,6.681h13.4a2.674,2.674,0,0,1,2.308,1.34H8.4A2.674,2.674,0,0,1,10.707,6.681Z" transform="translate(-4 -4)" fill="#fbfbfb"/>
    <circle id="Ellipse_1" data-name="Ellipse 1" cx="2.21" cy="2.21" r="2.21" transform="translate(5.052 15.787)" fill="#fbfbfb"/>
    <ellipse id="Ellipse_2" data-name="Ellipse 2" cx="1.894" cy="2.21" rx="1.894" ry="2.21" transform="translate(17.681 15.787)" fill="#fbfbfb"/>
  </g>
</svg>
