<svg id="chart-average" xmlns="http://www.w3.org/2000/svg" width="19.743" height="17.367" viewBox="0 0 19.743 17.367">
  <path id="Path_64" data-name="Path 64" d="M48.252,47.164c-2.538,0-3.547-2.59-4.522-5.095-.924-2.374-1.881-4.829-3.939-4.829a2.4,2.4,0,0,0-2.153,1.44l-1.338-.4A3.729,3.729,0,0,1,39.79,36c3.067,0,4.239,3.011,5.274,5.668.852,2.189,1.657,4.256,3.187,4.256a2.4,2.4,0,0,0,2.153-1.44l1.337.4A3.727,3.727,0,0,1,48.252,47.164Z" transform="translate(-33.444 -33.519)" fill="#fbfbfb"/>
  <path id="Path_65" data-name="Path 65" d="M13.41,28.126V21.3h1.41v-1.24H13.41V12H12V28.126a1.334,1.334,0,0,0,1.41,1.24H31.743v-1.24Z" transform="translate(-12 -12)" fill="#fbfbfb"/>
  <path id="Path_66" data-name="Path 66" d="M48,90h1.41v1.24H48Z" transform="translate(-43.769 -81.937)" fill="#fbfbfb"/>
  <path id="Path_67" data-name="Path 67" d="M72,90h1.41v1.24H72Z" transform="translate(-64.949 -81.937)" fill="#fbfbfb"/>
  <path id="Path_68" data-name="Path 68" d="M120,90h1.41v1.24H120Z" transform="translate(-107.308 -81.937)" fill="#fbfbfb"/>
  <path id="Path_69" data-name="Path 69" d="M144,90h1.41v1.24H144Z" transform="translate(-128.488 -81.937)" fill="#fbfbfb"/>
  <path id="Path_70" data-name="Path 70" d="M168,90h1.41v1.24H168Z" transform="translate(-149.667 -81.937)" fill="#fbfbfb"/>
</svg>
