<svg id="gpsalt" xmlns="http://www.w3.org/2000/svg" width="21.013" height="21.013" viewBox="0 0 21.013 21.013">
  <path id="Path_132" data-name="Path 132" d="M19.7,11.82a1.3,1.3,0,0,1-1.313-1.313,7.717,7.717,0,0,0-1.057-3.95,7.821,7.821,0,0,0-2.873-2.873,7.717,7.717,0,0,0-3.95-1.057,1.279,1.279,0,0,1-.923-.38,1.24,1.24,0,0,1-.39-.923A1.274,1.274,0,0,1,9.583.39,1.262,1.262,0,0,1,10.507,0,10.307,10.307,0,0,1,14.59.831a10.281,10.281,0,0,1,5.592,5.592,10.307,10.307,0,0,1,.831,4.084A1.3,1.3,0,0,1,19.7,11.82Zm-3.93,0a1.291,1.291,0,0,1-.934-.38,1.252,1.252,0,0,1-.39-.934,3.924,3.924,0,0,0-3.94-3.94,1.279,1.279,0,0,1-.923-.38,1.24,1.24,0,0,1-.39-.923A1.331,1.331,0,0,1,10.507,3.94a6.406,6.406,0,0,1,3.294.882,6.568,6.568,0,0,1,2.391,2.391,6.406,6.406,0,0,1,.882,3.294,1.3,1.3,0,0,1-1.3,1.313Zm-2.637-1.313a2.472,2.472,0,0,1-1.108,2.134l4.658,4.679a1.208,1.208,0,0,1,.39.913,1.274,1.274,0,0,1-.39.934,4.87,4.87,0,0,1-2.032,1.149,13.009,13.009,0,0,1-2.483.564,20.1,20.1,0,0,1-2.319.133,13.285,13.285,0,0,1-2.3-.205,10.992,10.992,0,0,1-2.565-.831,7.821,7.821,0,0,1-2.36-1.59,7.674,7.674,0,0,1-1.58-2.36,11.634,11.634,0,0,1-.831-2.575A12.73,12.73,0,0,1,0,11.163,21.946,21.946,0,0,1,.123,8.824,11.864,11.864,0,0,1,.687,6.351,5.14,5.14,0,0,1,1.847,4.309a1.274,1.274,0,0,1,.934-.39,1.208,1.208,0,0,1,.913.39L8.372,8.988A2.472,2.472,0,0,1,10.507,7.88a2.627,2.627,0,0,1,2.627,2.627Z" fill="#0cd861"/>
</svg>
