<svg xmlns="http://www.w3.org/2000/svg" width="31.466" height="31.466" viewBox="0 0 31.466 31.466">
  <g id="person" transform="translate(-24 -24)">
    <g id="Group_444" data-name="Group 444" transform="translate(24 24)">
      <path id="Path_151" data-name="Path 151" d="M39.733,39.733a7.867,7.867,0,1,0-7.867-7.867A7.867,7.867,0,0,0,39.733,39.733Zm5.244-7.867a5.244,5.244,0,1,1-5.244-5.244A5.244,5.244,0,0,1,44.977,31.867ZM55.466,52.844a2.568,2.568,0,0,1-2.622,2.622H26.622A2.568,2.568,0,0,1,24,52.844c0-2.622,2.622-10.489,15.733-10.489S55.466,50.222,55.466,52.844Zm-2.622-.01a7.006,7.006,0,0,0-2.182-4.363c-1.71-1.71-4.927-3.493-10.929-3.493S30.513,46.76,28.8,48.47a7.021,7.021,0,0,0-2.182,4.363Z" transform="translate(-24 -24)" fill="#104a69"/>
    </g>
  </g>
</svg>
