<svg xmlns="http://www.w3.org/2000/svg" width="20.626" height="19.292" viewBox="0 0 20.626 19.292">
  <g id="person-remove-outline" transform="translate(-11.16 -17.24)">
    <path id="Path_168" data-name="Path 168" d="M83.22,22.23c-.163,2.2-1.829,3.99-3.658,3.99s-3.5-1.792-3.658-3.99a3.672,3.672,0,1,1,7.316,0Z" transform="translate(-56.761 0)" fill="none" stroke="#fff" stroke-linecap="round" stroke-linejoin="round" stroke-width="2"/>
    <path id="Path_169" data-name="Path 169" d="M44.457,115.52c-3.616,0-7.287,2-7.966,5.761a.7.7,0,0,0,.651.89H51.773a.7.7,0,0,0,.651-.89C51.744,117.515,48.074,115.52,44.457,115.52Z" transform="translate(-21.656 -86.639)" fill="none" stroke="#fff" stroke-miterlimit="10" stroke-width="2"/>
    <path id="Path_170" data-name="Path 170" d="M16.816,88.16H12.16" transform="translate(0 -62.272)" fill="none" stroke="#fff" stroke-linecap="round" stroke-linejoin="round" stroke-width="2"/>
  </g>
</svg>
