<svg xmlns="http://www.w3.org/2000/svg" width="33.511" height="33.5" viewBox="0 0 33.511 33.5">
  <g id="bx-bus" transform="translate(-16 -16)">
    <path id="Path_104" data-name="Path 104" d="M47.832,26.008V22.7a6.707,6.707,0,0,0-6.7-6.7H24.382a6.707,6.707,0,0,0-6.7,6.7v3.347l-.127.007A1.675,1.675,0,0,0,16,27.725v3.35a1.675,1.675,0,0,0,1.675,1.675h.007V42.8a3.341,3.341,0,0,0,1.668,2.881v2.144A1.675,1.675,0,0,0,21.025,49.5H22.7a1.675,1.675,0,0,0,1.675-1.675V46.15h16.75v1.675A1.675,1.675,0,0,0,42.8,49.5h1.675a1.675,1.675,0,0,0,1.675-1.675V45.688A3.34,3.34,0,0,0,47.832,42.8V32.75a1.675,1.675,0,0,0,1.675-1.675V27.829a1.685,1.685,0,0,0-.121-.762A1.751,1.751,0,0,0,47.832,26.008ZM44.485,42.8H21.032V34.425H44.483Zm-13.4-18.425v6.7H21.032v-6.7Zm13.4,0v6.7H34.432v-6.7Zm-20.1-5.025h16.75a3.341,3.341,0,0,1,2.884,1.675H21.5A3.341,3.341,0,0,1,24.382,19.35Z" transform="translate(0)" fill="#104a69"/>
    <circle id="Ellipse_15" data-name="Ellipse 15" cx="2.513" cy="2.513" r="2.513" transform="translate(22.7 36.1)" fill="#104a69"/>
    <circle id="Ellipse_16" data-name="Ellipse 16" cx="2.513" cy="2.513" r="2.513" transform="translate(37.775 36.1)" fill="#104a69"/>
  </g>
</svg>
