<svg xmlns="http://www.w3.org/2000/svg" width="26.664" height="34.315" viewBox="0 0 26.664 34.315">
  <g id="report-data" transform="translate(0 0)">
    <path id="Path_18" data-name="Path 18" d="M22.5,30h2.724v4.338H22.5Z" transform="translate(-10.53 -7.517)" fill="#104a69"/>
    <path id="Path_19" data-name="Path 19" d="M30,27h2.724v6.507H30Z" transform="translate(-12.045 -6.776)" fill="#104a69"/>
    <path id="Path_20" data-name="Path 20" d="M15,21h2.724V31.845H15Z" transform="translate(-9.015 -5.353)" fill="#104a69"/>
    <path id="Path_21" data-name="Path 21" d="M31.74,6.677H28.1V5.451A2.438,2.438,0,0,0,25.68,3h-9.7A2.438,2.438,0,0,0,13.56,5.451V6.677H9.924A2.438,2.438,0,0,0,7.5,9.128V34.864a2.438,2.438,0,0,0,2.424,2.451H31.74a2.438,2.438,0,0,0,2.424-2.451V9.128A2.438,2.438,0,0,0,31.74,6.677ZM15.984,5.451h9.7v4.9h-9.7ZM31.74,34.864H9.924V9.128H13.56V12.8H28.1V9.128H31.74Z" transform="translate(-7.5 -3)" fill="#104a69"/>
  </g>
</svg>
