<svg id="bx-bus" xmlns="http://www.w3.org/2000/svg" width="22.007" height="22" viewBox="0 0 22.007 22">
  <path id="Path_17" data-name="Path 17" d="M24.9,10.572V8.4A4.4,4.4,0,0,0,20.5,4H9.5A4.4,4.4,0,0,0,5.1,8.4v2.2l-.084,0A1.1,1.1,0,0,0,4,11.7v2.2A1.1,1.1,0,0,0,5.1,15h0v6.6a2.194,2.194,0,0,0,1.1,1.892V24.9A1.1,1.1,0,0,0,7.3,26H8.4a1.1,1.1,0,0,0,1.1-1.1V23.8h11v1.1A1.1,1.1,0,0,0,21.6,26h1.1a1.1,1.1,0,0,0,1.1-1.1V23.5a2.193,2.193,0,0,0,1.1-1.9V15A1.1,1.1,0,0,0,26,13.9V11.768a1.107,1.107,0,0,0-.079-.5A1.15,1.15,0,0,0,24.9,10.572ZM22.706,21.6H7.3V16.1h15.4ZM13.9,9.5v4.4H7.3V9.5Zm8.8,0v4.4H16.1V9.5ZM9.5,6.2h11A2.194,2.194,0,0,1,22.4,7.3H7.61A2.194,2.194,0,0,1,9.5,6.2Z" transform="translate(-4 -4)" fill="#fbfbfb"/>
  <circle id="Ellipse_1" data-name="Ellipse 1" cx="1.814" cy="1.814" r="1.814" transform="translate(4.146 12.955)" fill="#fbfbfb"/>
  <ellipse id="Ellipse_2" data-name="Ellipse 2" cx="1.555" cy="1.814" rx="1.555" ry="1.814" transform="translate(14.509 12.955)" fill="#fbfbfb"/>
</svg>
