<svg xmlns="http://www.w3.org/2000/svg" width="15.808" height="21.535" viewBox="0 0 15.808 21.535">
  <path id="Path_144" data-name="Path 144" d="M24.311,46.8a.731.731,0,0,1-.729.728H9.23A.731.731,0,0,1,8.5,46.8V26.72a.731.731,0,0,1,.728-.728H19.877l4.432,4.432Zm-1.7-15.2H19.56a.881.881,0,0,1-.879-.879V27.69H10.2V45.828H22.613Zm-2.327,6.431a.728.728,0,0,1-.728.728H17.133v2.424a.728.728,0,0,1-1.455,0V38.755H13.256a.728.728,0,0,1,0-1.455h2.422V34.88a.728.728,0,1,1,1.455,0V37.3h2.422a.728.728,0,0,1,.728.728Z" transform="translate(-8.503 -25.993)" fill="#fff"/>
</svg>
