<svg xmlns="http://www.w3.org/2000/svg" width="74.421" height="66.078" viewBox="0 0 74.421 66.078">
  <g id="shape" transform="translate(0 0)">
    <g id="Dotted_circle" data-name="Dotted circle">
      <path id="Circle" d="M1262.7,99.487a1.472,1.472,0,1,1-1.466-1.317A1.4,1.4,0,0,1,1262.7,99.487Z" transform="translate(-1224.027 -98.17)" fill="#104a69"/>
      <path id="Circle-2" data-name="Circle" d="M1254.13,100.151a1.321,1.321,0,0,1-1.1,1.577,1.474,1.474,0,0,1-1.752-.992,1.321,1.321,0,0,1,1.1-1.578,1.474,1.474,0,0,1,1.752.992Z" transform="translate(-1223.447 -98.356)" fill="#104a69"/>
      <path id="Circle-3" data-name="Circle" d="M1245.914,102.715a1.263,1.263,0,0,1-.683,1.759,1.538,1.538,0,0,1-1.953-.616,1.263,1.263,0,0,1,.684-1.759A1.537,1.537,0,0,1,1245.914,102.715Z" transform="translate(-1222.894 -98.919)" fill="#104a69"/>
      <path id="Circle-4" data-name="Circle" d="M1238.464,107.035a1.233,1.233,0,0,1-.231,1.856,1.577,1.577,0,0,1-2.06-.209,1.234,1.234,0,0,1,.234-1.855A1.577,1.577,0,0,1,1238.464,107.035Z" transform="translate(-1222.396 -99.821)" fill="#104a69"/>
      <path id="Circle-5" data-name="Circle" d="M1232.163,112.9a1.231,1.231,0,0,1,.231,1.852,1.575,1.575,0,0,1-2.056.209,1.231,1.231,0,0,1-.232-1.852,1.574,1.574,0,0,1,2.056-.209Z" transform="translate(-1222.326 -100.669)" fill="#104a69"/>
      <path id="Circle-6" data-name="Circle" d="M1227.313,120.015a1.265,1.265,0,0,1,.686,1.762,1.541,1.541,0,0,1-1.957.617,1.265,1.265,0,0,1-.683-1.763,1.541,1.541,0,0,1,1.954-.616Z" transform="translate(-1221.827 -101.927)" fill="#104a69"/>
      <path id="Circle-7" data-name="Circle" d="M1224.171,128.025a1.324,1.324,0,0,1,1.105,1.58,1.477,1.477,0,0,1-1.756.994,1.323,1.323,0,0,1-1.1-1.582,1.474,1.474,0,0,1,1.752-.992Z" transform="translate(-1221.522 -103.33)" fill="#104a69"/>
      <path id="Circle-8" data-name="Circle" d="M1222.879,136.528a1.325,1.325,0,1,1-1.466,1.318,1.255,1.255,0,0,1,.429-.933A1.549,1.549,0,0,1,1222.879,136.528Z" transform="translate(-1221.413 -104.807)" fill="#104a69"/>
      <path id="Circle-9" data-name="Circle" d="M1223.518,145.1a1.549,1.549,0,0,1,1.523.522,1.213,1.213,0,0,1,.047,1.467,1.533,1.533,0,0,1-1.487.6,1.411,1.411,0,0,1-1.183-1.009A1.323,1.323,0,0,1,1223.518,145.1Z" transform="translate(-1221.521 -106.283)" fill="#104a69"/>
      <path id="Circle-10" data-name="Circle" d="M1226.045,153.3a1.541,1.541,0,0,1,1.957.615,1.265,1.265,0,0,1-.685,1.763,1.541,1.541,0,0,1-1.957-.618A1.265,1.265,0,0,1,1226.045,153.3Z" transform="translate(-1221.829 -107.684)" fill="#104a69"/>
      <path id="Circle-11" data-name="Circle" d="M1230.338,160.731a1.575,1.575,0,0,1,2.056.209,1.232,1.232,0,0,1-.232,1.852,1.575,1.575,0,0,1-2.056-.209A1.231,1.231,0,0,1,1230.338,160.731Z" transform="translate(-1222.326 -108.945)" fill="#104a69"/>
      <path id="Circle-12" data-name="Circle" d="M1236.181,167.013a1.575,1.575,0,0,1,2.057-.209,1.232,1.232,0,0,1,.232,1.853,1.575,1.575,0,0,1-2.057.208A1.233,1.233,0,0,1,1236.181,167.013Z" transform="translate(-1222.401 -109.793)" fill="#104a69"/>
      <path id="Circle-13" data-name="Circle" d="M1243.278,171.834a1.538,1.538,0,0,1,1.953-.616,1.263,1.263,0,0,1,.684,1.759,1.538,1.538,0,0,1-1.953.616A1.262,1.262,0,0,1,1243.278,171.834Z" transform="translate(-1222.894 -110.695)" fill="#104a69"/>
      <path id="Circle-14" data-name="Circle" d="M1251.278,174.952a1.474,1.474,0,0,1,1.752-.991,1.321,1.321,0,0,1,1.1,1.578,1.474,1.474,0,0,1-1.752.991A1.323,1.323,0,0,1,1251.278,174.952Z" transform="translate(-1223.447 -111.257)" fill="#104a69"/>
      <path id="Circle-15" data-name="Circle" d="M1259.776,176.2a1.472,1.472,0,1,1,1.464,1.318A1.4,1.4,0,0,1,1259.776,176.2Z" transform="translate(-1224.027 -111.444)" fill="#104a69"/>
      <path id="Circle-16" data-name="Circle" d="M1268.349,175.537a1.321,1.321,0,0,1,1.1-1.577,1.474,1.474,0,0,1,1.752.992,1.321,1.321,0,0,1-1.1,1.578A1.474,1.474,0,0,1,1268.349,175.537Z" transform="translate(-1224.609 -111.256)" fill="#104a69"/>
      <path id="Circle-17" data-name="Circle" d="M1276.565,172.976a1.263,1.263,0,0,1,.683-1.759,1.538,1.538,0,0,1,1.953.616,1.263,1.263,0,0,1-.684,1.759,1.538,1.538,0,0,1-1.953-.616Z" transform="translate(-1225.161 -110.695)" fill="#104a69"/>
      <path id="Circle-18" data-name="Circle" d="M1284.014,168.659a1.231,1.231,0,0,1,.232-1.852,1.574,1.574,0,0,1,2.056.209,1.231,1.231,0,0,1-.231,1.852,1.578,1.578,0,0,1-1.076.28A1.511,1.511,0,0,1,1284.014,168.659Z" transform="translate(-1225.658 -109.795)" fill="#104a69"/>
      <path id="Circle-19" data-name="Circle" d="M1290.317,162.792a1.231,1.231,0,0,1-.232-1.852,1.574,1.574,0,0,1,2.056-.209,1.231,1.231,0,0,1,.232,1.852A1.575,1.575,0,0,1,1290.317,162.792Z" transform="translate(-1225.73 -108.945)" fill="#104a69"/>
      <path id="Circle-20" data-name="Circle" d="M1295.159,155.674a1.265,1.265,0,0,1-.686-1.762,1.541,1.541,0,0,1,1.957-.617,1.265,1.265,0,0,1,.683,1.763,1.541,1.541,0,0,1-1.954.616Z" transform="translate(-1226.222 -107.682)" fill="#104a69"/>
      <path id="Circle-21" data-name="Circle" d="M1298.3,147.659a1.324,1.324,0,0,1-1.105-1.58,1.477,1.477,0,0,1,1.756-.994,1.323,1.323,0,0,1,1.1,1.582,1.474,1.474,0,0,1-1.752.992Z" transform="translate(-1226.529 -106.277)" fill="#104a69"/>
      <path id="Circle-22" data-name="Circle" d="M1299.6,139.164a1.325,1.325,0,1,1,1.463-1.317A1.4,1.4,0,0,1,1299.6,139.164Z" transform="translate(-1226.641 -104.807)" fill="#104a69"/>
      <path id="Circle-23" data-name="Circle" d="M1298.955,130.59a1.549,1.549,0,0,1-1.523-.522,1.213,1.213,0,0,1-.047-1.467,1.533,1.533,0,0,1,1.487-.6,1.41,1.41,0,0,1,1.183,1.009,1.323,1.323,0,0,1-1.1,1.578Z" transform="translate(-1226.528 -103.325)" fill="#104a69"/>
      <path id="Circle-24" data-name="Circle" d="M1296.427,122.385a1.541,1.541,0,0,1-1.957-.615,1.265,1.265,0,0,1,.685-1.763,1.54,1.54,0,0,1,1.956.618A1.265,1.265,0,0,1,1296.427,122.385Z" transform="translate(-1226.219 -101.922)" fill="#104a69"/>
      <path id="Circle-25" data-name="Circle" d="M1292.141,114.96a1.575,1.575,0,0,1-2.056-.209,1.231,1.231,0,0,1,.232-1.852,1.575,1.575,0,0,1,2.056.209,1.226,1.226,0,0,1,.31.969,1.29,1.29,0,0,1-.542.883Z" transform="translate(-1225.73 -100.669)" fill="#104a69"/>
      <path id="Circle-26" data-name="Circle" d="M1286.3,108.677a1.575,1.575,0,0,1-2.057.208,1.232,1.232,0,0,1-.231-1.852,1.576,1.576,0,0,1,2.057-.208A1.233,1.233,0,0,1,1286.3,108.677Z" transform="translate(-1225.656 -99.82)" fill="#104a69"/>
      <path id="Circle-27" data-name="Circle" d="M1279.2,103.858a1.538,1.538,0,0,1-1.953.616,1.263,1.263,0,0,1-.684-1.759,1.538,1.538,0,0,1,1.953-.616A1.262,1.262,0,0,1,1279.2,103.858Z" transform="translate(-1225.161 -98.92)" fill="#104a69"/>
      <path id="Circle-28" data-name="Circle" d="M1271.2,100.742a1.474,1.474,0,0,1-1.752.991,1.321,1.321,0,0,1-1.1-1.578,1.474,1.474,0,0,1,1.752-.991,1.323,1.323,0,0,1,1.1,1.578Z" transform="translate(-1224.609 -98.359)" fill="#104a69"/>
    </g>
  </g>
</svg>
