<svg id="money" xmlns="http://www.w3.org/2000/svg" width="21.869" height="16.488" viewBox="0 0 21.869 16.488">
  <path id="Path_56" data-name="Path 56" d="M12,132H33.869v1.374H12Z" transform="translate(-12 -119.634)" fill="#fbfbfb"/>
  <path id="Path_57" data-name="Path 57" d="M12,156H33.869v1.374H12Z" transform="translate(-12 -140.886)" fill="#fbfbfb"/>
  <path id="Path_58" data-name="Path 58" d="M133.562,60a1.385,1.385,0,1,0,1.562,1.374A1.477,1.477,0,0,0,133.562,60Z" transform="translate(-116.379 -55.878)" fill="#fbfbfb"/>
  <path id="Path_59" data-name="Path 59" d="M75.124,53.5a2.771,2.771,0,1,1,3.124-2.748A2.954,2.954,0,0,1,75.124,53.5Zm0-4.122a1.385,1.385,0,1,0,1.562,1.374A1.477,1.477,0,0,0,75.124,49.374Z" transform="translate(-64.19 -45.252)" fill="#fbfbfb"/>
  <path id="Path_60" data-name="Path 60" d="M37.562,60a1.385,1.385,0,1,0,1.562,1.374A1.477,1.477,0,0,0,37.562,60Z" transform="translate(-32.876 -55.878)" fill="#fbfbfb"/>
  <path id="Path_61" data-name="Path 61" d="M32.307,34.992H13.562A1.481,1.481,0,0,1,12,33.618V25.374A1.481,1.481,0,0,1,13.562,24H32.307a1.481,1.481,0,0,1,1.562,1.374v8.244A1.479,1.479,0,0,1,32.307,34.992Zm0-9.618H13.562v8.244H32.307Z" transform="translate(-12 -24)" fill="#fbfbfb"/>
</svg>
