<svg id="person" xmlns="http://www.w3.org/2000/svg" width="16.1" height="14.44" viewBox="0 0 16.1 14.44">
  <path id="Path_71" data-name="Path 71" d="M64.751,13.269a4.539,4.539,0,0,0-5.938-.007,3.341,3.341,0,0,0-1.04,2.75,4.02,4.02,0,0,0,8.025,0A3.333,3.333,0,0,0,64.751,13.269Z" transform="translate(-53.735 -12.16)" fill="#fbfbfb"/>
  <path id="Path_72" data-name="Path 72" d="M33.1,115.976H19.476a1.273,1.273,0,0,1-.937-.379,1.1,1.1,0,0,1-.278-.991,5.853,5.853,0,0,1,2.948-3.873,10.612,10.612,0,0,1,10.155,0,5.852,5.852,0,0,1,2.948,3.872,1.1,1.1,0,0,1-.278.991A1.273,1.273,0,0,1,33.1,115.976Z" transform="translate(-18.238 -101.536)" fill="#fbfbfb"/>
</svg>
