<svg id="update-now" xmlns="http://www.w3.org/2000/svg" width="22.811" height="20.065" viewBox="0 0 22.811 20.065">
  <path id="Path_52" data-name="Path 52" d="M141.146,129.173l-1.573-1.384V126H138v2.362l2.034,1.789Z" transform="translate(-121.482 -112.854)" fill="#fbfbfb"/>
  <path id="Path_53" data-name="Path 53" d="M107.506,111.687c-3.041,0-5.506-2.168-5.506-4.843S104.465,102,107.506,102s5.506,2.168,5.506,4.843S110.546,111.684,107.506,111.687Zm0-8.3a3.488,3.488,0,1,0,3.933,3.459A3.719,3.719,0,0,0,107.506,103.384Z" transform="translate(-90.201 -91.621)" fill="#fbfbfb"/>
  <path id="Path_54" data-name="Path 54" d="M23.012,104.3c-5.211,0-9.433-3.719-9.439-8.3H12c.007,5.347,4.933,9.68,11.012,9.687Z" transform="translate(-12 -86.313)" fill="#fbfbfb"/>
  <path id="Path_55" data-name="Path 55" d="M30.293,16.148H26.421a10.32,10.32,0,0,1,10.4-2.221,8.393,8.393,0,0,1,6.06,7.757h1.573c.007-3.939-2.7-7.489-6.851-8.973a12.1,12.1,0,0,0-12.027,2.216V12H24v5.535h6.293Z" transform="translate(-22.427 -11.997)" fill="#fbfbfb"/>
</svg>
