<svg xmlns="http://www.w3.org/2000/svg" width="47" height="47" viewBox="0 0 47 47">
  <g id="NOTIFICATION" transform="translate(-1260 -20)">
    <g id="shape" transform="translate(332 -390)">
      <path id="Bk_circle_bkgd" data-name="Bk circle bkgd" d="M1036.618,856.561a23.5,23.5,0,1,1,23.5-23.5A23.5,23.5,0,0,1,1036.618,856.561Z" transform="translate(-85.118 -399.561)" fill="#333"/>
    </g>
    <g id="notification-line" transform="translate(1255.744 21.591)">
      <path id="Path_82" data-name="Path 82" d="M38.821,29.417A11.029,11.029,0,0,1,36.9,27.173a9.674,9.674,0,0,1-1.034-3.684V19.705a8.28,8.28,0,0,0-7.23-8.234v-.988a1.023,1.023,0,1,0-2.045,0v1a8.28,8.28,0,0,0-7.146,8.218v3.784a9.674,9.674,0,0,1-1.034,3.684,11.029,11.029,0,0,1-1.892,2.244.766.766,0,0,0-.26.574v1.042a.766.766,0,0,0,.766.766H38.315a.766.766,0,0,0,.766-.766V29.991A.766.766,0,0,0,38.821,29.417Zm-20.971.85a12.385,12.385,0,0,0,1.869-2.3,10.907,10.907,0,0,0,1.264-4.481V19.705a6.694,6.694,0,1,1,13.381,0v3.784a10.907,10.907,0,0,0,1.264,4.481,12.385,12.385,0,0,0,1.869,2.3Z" transform="translate(0)" fill="#fff"/>
      <path id="Path_83" data-name="Path 83" d="M83.708,172.306a2.045,2.045,0,0,0,1.976-1.746H81.656A2.045,2.045,0,0,0,83.708,172.306Z" transform="translate(-56.001 -137.949)" fill="#fff"/>
    </g>
  </g>
</svg>
