<svg xmlns="http://www.w3.org/2000/svg" width="32.843" height="34.424" viewBox="0 0 32.843 34.424">
  <g id="passenger-plus" transform="translate(-12.198 -12)">
    <path id="Path_153" data-name="Path 153" d="M46.11,20.221a4.11,4.11,0,1,1,4.11-4.11A4.11,4.11,0,0,1,46.11,20.221Zm0-5.872a1.762,1.762,0,1,0,1.762,1.762A1.762,1.762,0,0,0,46.11,14.349Z" transform="translate(-23.969 0)" fill="#104a69"/>
    <path id="Path_154" data-name="Path 154" d="M58.268,85.022l-3.68-8.588H46.248a4.706,4.706,0,0,1-4.541-3.488l-1.919-7.2a4.579,4.579,0,1,1,8.849-2.359l.971,3.648h6.929v2.349H47.8L46.368,64a2.231,2.231,0,0,0-4.31,1.149l1.918,7.194a2.355,2.355,0,0,0,2.271,1.745h9.888L60.428,84.1Z" transform="translate(-22.065 -38.597)" fill="#104a69"/>
    <path id="Path_155" data-name="Path 155" d="M131.744,16.7h-4.7V12H124.7v4.7H120v2.349h4.7v4.7h2.349v-4.7h4.7Z" transform="translate(-86.702)" fill="#104a69"/>
    <path id="Path_156" data-name="Path 156" d="M30.949,89.545H18.933a2.351,2.351,0,0,1-2.27-1.744L12.2,71.058l2.27-.606L18.933,87.2H30.949Z" transform="translate(0 -47.011)" fill="#104a69"/>
  </g>
</svg>
