<svg xmlns="http://www.w3.org/2000/svg" width="27.2" height="23.8" viewBox="0 0 27.2 23.8">
  <g id="printer" transform="translate(0 -12)">
    <g id="Group_467" data-name="Group 467" transform="translate(0 12)">
      <path id="Path_171" data-name="Path 171" d="M25.151,86.3A1.151,1.151,0,1,0,24,85.151,1.151,1.151,0,0,0,25.151,86.3Z" transform="translate(-20.8 -74.401)" fill="#fff"/>
      <path id="Path_172" data-name="Path 172" d="M8.5,12a3.4,3.4,0,0,0-3.4,3.4v3.4H3.4A3.4,3.4,0,0,0,0,22.2v5.1a3.4,3.4,0,0,0,3.4,3.4H5.1v1.7a3.4,3.4,0,0,0,3.4,3.4H18.7a3.4,3.4,0,0,0,3.4-3.4V30.7h1.7a3.4,3.4,0,0,0,3.4-3.4V22.2a3.4,3.4,0,0,0-3.4-3.4H22.1V15.4A3.4,3.4,0,0,0,18.7,12ZM6.8,15.4a1.7,1.7,0,0,1,1.7-1.7H18.7a1.7,1.7,0,0,1,1.7,1.7v3.4H6.8Zm1.7,8.5a3.4,3.4,0,0,0-3.4,3.4V29H3.4a1.7,1.7,0,0,1-1.7-1.7V22.2a1.7,1.7,0,0,1,1.7-1.7H23.8a1.7,1.7,0,0,1,1.7,1.7v5.1A1.7,1.7,0,0,1,23.8,29H22.1V27.3a3.4,3.4,0,0,0-3.4-3.4Zm11.9,3.4v5.1a1.7,1.7,0,0,1-1.7,1.7H8.5a1.7,1.7,0,0,1-1.7-1.7V27.3a1.7,1.7,0,0,1,1.7-1.7H18.7A1.7,1.7,0,0,1,20.4,27.3Z" transform="translate(0 -12)" fill="#fff"/>
    </g>
  </g>
</svg>
