<svg id="bx-receipt" xmlns="http://www.w3.org/2000/svg" width="21.954" height="19.758" viewBox="0 0 21.954 19.758">
  <path id="Path_133" data-name="Path 133" d="M36.856,32.781H33.563V25.1a1.1,1.1,0,0,0-1.1-1.1H17.1A1.1,1.1,0,0,0,16,25.1V40.465a3.3,3.3,0,0,0,3.293,3.293H34.661a3.3,3.3,0,0,0,3.293-3.293V33.879A1.1,1.1,0,0,0,36.856,32.781ZM19.293,41.563a1.1,1.1,0,0,1-1.1-1.1V26.2H31.368v14.27a3.3,3.3,0,0,0,.188,1.1Zm16.465-1.1a1.1,1.1,0,0,1-2.2,0V34.977h2.2Z" transform="translate(-16 -24)" fill="#fff"/>
  <path id="Path_134" data-name="Path 134" d="M48,56h8.781v2.2H48Zm0,4.391h8.781v2.2H48Zm5.488,4.391h3.293v2.2H53.488Z" transform="translate(-43.609 -51.609)" fill="#fff"/>
</svg>
