<svg xmlns="http://www.w3.org/2000/svg" width="35.549" height="6.189" viewBox="0 0 35.549 6.189">
  <g id="Slanted_lines" data-name="Slanted lines" transform="translate(-0.088 0.157)">
    <path id="Rectangle" d="M.1.008.291.016.6,6.805.406,6.8Z" transform="matrix(0.875, -0.485, 0.485, 0.875, 0, 0.127)" fill="#fff"/>
    <path id="Rectangle-2" data-name="Rectangle" d="M.1.008.291.016.6,6.805.406,6.8Z" transform="matrix(0.875, -0.485, 0.485, 0.875, 1.872, 0.127)" fill="#fff"/>
    <path id="Rectangle-3" data-name="Rectangle" d="M.1.008.291.016.6,6.805.406,6.8Z" transform="matrix(0.875, -0.485, 0.485, 0.875, 3.745, 0.127)" fill="#fff"/>
    <path id="Rectangle-4" data-name="Rectangle" d="M.1.008.291.016.6,6.805.406,6.8Z" transform="matrix(0.875, -0.485, 0.485, 0.875, 5.614, 0.127)" fill="#fff"/>
    <path id="Rectangle-5" data-name="Rectangle" d="M.1.008.291.016.6,6.805.406,6.8Z" transform="matrix(0.875, -0.485, 0.485, 0.875, 7.485, 0.127)" fill="#fff"/>
    <path id="Rectangle-6" data-name="Rectangle" d="M.1.008.291.016.6,6.805.406,6.8Z" transform="matrix(0.875, -0.485, 0.485, 0.875, 9.357, 0.127)" fill="#fff"/>
    <path id="Rectangle-7" data-name="Rectangle" d="M.1.008.291.016.6,6.805.406,6.8Z" transform="matrix(0.875, -0.485, 0.485, 0.875, 11.228, 0.127)" fill="#fff"/>
    <path id="Rectangle-8" data-name="Rectangle" d="M.1.008.291.016.6,6.805.406,6.8Z" transform="matrix(0.875, -0.485, 0.485, 0.875, 13.1, 0.127)" fill="#fff"/>
    <path id="Rectangle-9" data-name="Rectangle" d="M.1.008.291.016.6,6.805.406,6.8Z" transform="matrix(0.875, -0.485, 0.485, 0.875, 14.971, 0.127)" fill="#fff"/>
    <path id="Rectangle-10" data-name="Rectangle" d="M.1.008.291.016.6,6.805.406,6.8Z" transform="matrix(0.875, -0.485, 0.485, 0.875, 16.842, 0.127)" fill="#fff"/>
    <path id="Rectangle-11" data-name="Rectangle" d="M.1.008.291.016.6,6.805.406,6.8Z" transform="matrix(0.875, -0.485, 0.485, 0.875, 18.714, 0.127)" fill="#fff"/>
    <path id="Rectangle-12" data-name="Rectangle" d="M.1.008.291.016.6,6.805.406,6.8Z" transform="matrix(0.875, -0.485, 0.485, 0.875, 20.585, 0.127)" fill="#fff"/>
    <path id="Rectangle-13" data-name="Rectangle" d="M.1.008.291.016.6,6.805.406,6.8Z" transform="matrix(0.875, -0.485, 0.485, 0.875, 22.456, 0.127)" fill="#fff"/>
    <path id="Rectangle-14" data-name="Rectangle" d="M.1.008.291.016.6,6.805.406,6.8Z" transform="matrix(0.875, -0.485, 0.485, 0.875, 24.328, 0.127)" fill="#fff"/>
    <path id="Rectangle-15" data-name="Rectangle" d="M.1.008.291.016.6,6.805.406,6.8Z" transform="matrix(0.875, -0.485, 0.485, 0.875, 26.199, 0.127)" fill="#fff"/>
    <path id="Rectangle-16" data-name="Rectangle" d="M.1.008.291.016.6,6.805.406,6.8Z" transform="matrix(0.875, -0.485, 0.485, 0.875, 28.068, 0.127)" fill="#fff"/>
    <path id="Rectangle-17" data-name="Rectangle" d="M.1.008.291.016.6,6.805.406,6.8Z" transform="matrix(0.875, -0.485, 0.485, 0.875, 29.941, 0.127)" fill="#fff"/>
    <path id="Rectangle-18" data-name="Rectangle" d="M.1.008.291.016.6,6.805.406,6.8Z" transform="matrix(0.875, -0.485, 0.485, 0.875, 31.813, 0.127)" fill="#fff"/>
  </g>
</svg>
