<svg xmlns="http://www.w3.org/2000/svg" width="25.125" height="33.5" viewBox="0 0 25.125 33.5">
  <g id="file-post" transform="translate(-24)">
    <g id="Group_203" data-name="Group 203" transform="translate(24)">
      <path id="Path_105" data-name="Path 105" d="M48,37.047A1.047,1.047,0,0,1,49.047,36H59.516a1.047,1.047,0,0,1,0,2.094H49.047A1.047,1.047,0,0,1,48,37.047Zm0,4.188a1.047,1.047,0,0,1,1.047-1.047H63.7a1.047,1.047,0,0,1,1.047,1.047v16.75A1.047,1.047,0,0,1,63.7,59.031H49.047A1.047,1.047,0,0,1,48,57.984Z" transform="translate(-43.813 -29.719)" fill="#104a69"/>
      <path id="Path_106" data-name="Path 106" d="M24,4.188A4.187,4.187,0,0,1,28.188,0h16.75a4.187,4.187,0,0,1,4.187,4.188V29.313A4.187,4.187,0,0,1,44.938,33.5H28.188A4.187,4.187,0,0,1,24,29.313ZM44.938,2.094H28.188a2.094,2.094,0,0,0-2.094,2.094V29.313a2.094,2.094,0,0,0,2.094,2.094h16.75a2.094,2.094,0,0,0,2.094-2.094V4.188A2.094,2.094,0,0,0,44.938,2.094Z" transform="translate(-24)" fill="#104a69"/>
    </g>
  </g>
</svg>
