<svg xmlns="http://www.w3.org/2000/svg" width="26.412" height="34.75" viewBox="0 0 26.412 34.75">
  <g id="passenger-plus" transform="translate(-12.198 -12)">
    <path id="Path_107" data-name="Path 107" d="M46.149,20.3A4.149,4.149,0,1,1,50.3,16.149,4.149,4.149,0,0,1,46.149,20.3Zm0-5.927a1.778,1.778,0,1,0,1.778,1.778A1.778,1.778,0,0,0,46.149,14.371Z" transform="translate(-23.914)" fill="#104a69"/>
    <path id="Path_108" data-name="Path 108" d="M58.444,85.259l-3.715-8.669H46.311a4.75,4.75,0,0,1-4.584-3.521L39.79,65.8a4.622,4.622,0,0,1,8.933-2.382l.98,3.682H56.7v2.371H47.882l-1.45-5.441a2.252,2.252,0,0,0-4.351,1.159l1.936,7.262a2.377,2.377,0,0,0,2.293,1.762h9.982l4.333,10.106Z" transform="translate(-22.014 -38.509)" fill="#104a69"/>
    <path id="Path_110" data-name="Path 110" d="M31.127,89.726H19a2.373,2.373,0,0,1-2.292-1.76L12.2,71.064l2.292-.612L19,87.355h12.13Z" transform="translate(0 -46.903)" fill="#104a69"/>
  </g>
</svg>
