<svg xmlns="http://www.w3.org/2000/svg" width="35.314" height="35.314" viewBox="0 0 35.314 35.314">
  <g id="wheel" transform="translate(1 1)">
    <path id="Path_152" data-name="Path 152" d="M16.657,33.314a16.606,16.606,0,0,1-14.429-8.3A16.363,16.363,0,0,1,0,16.657,16.606,16.606,0,0,1,8.3,2.229,16.363,16.363,0,0,1,16.657,0,16.606,16.606,0,0,1,31.086,8.3a16.363,16.363,0,0,1,2.229,8.361,16.606,16.606,0,0,1-8.3,14.429A16.363,16.363,0,0,1,16.657,33.314ZM4.327,14.64a13.963,13.963,0,0,0-.163,2.017,12.023,12.023,0,0,0,2.977,8.085,12.189,12.189,0,0,0,7.434,4.213V22.708a8.9,8.9,0,0,1-4.49-2.229,5.153,5.153,0,0,1-1.757-3.823,3.822,3.822,0,0,1,.065-.683A13.943,13.943,0,0,1,4.327,14.64ZM16.657,4.164A12.118,12.118,0,0,0,10.2,5.97a12.607,12.607,0,0,0-4.571,4.8Q9.5,12.493,16.657,12.493t11.029-1.724a12.607,12.607,0,0,0-4.571-4.8A12.118,12.118,0,0,0,16.657,4.164Zm8.264,11.81a3.822,3.822,0,0,1,.065.683A5.2,5.2,0,0,1,23.229,20.5a8.627,8.627,0,0,1-4.49,2.212v6.246a12.189,12.189,0,0,0,7.434-4.213,12.023,12.023,0,0,0,2.977-8.085,13.963,13.963,0,0,0-.163-2.017A13.509,13.509,0,0,1,24.921,15.974Z" fill="none" stroke="#104a69" stroke-width="2"/>
  </g>
</svg>
