<svg xmlns="http://www.w3.org/2000/svg" width="22.123" height="22.123" viewBox="0 0 22.123 22.123">
  <g id="data-table-reference" transform="translate(-12 -18)">
    <path id="Path_119" data-name="Path 119" d="M13.639,120v1.639H17.4l-5.4,5.4,1.159,1.159,5.4-5.4v3.758h1.639V120Z" transform="translate(0 -88.071)" fill="#fff"/>
    <path id="Path_120" data-name="Path 120" d="M120,132h3.277v1.639H120Z" transform="translate(-93.251 -98.432)" fill="#fff"/>
    <path id="Path_121" data-name="Path 121" d="M96,108h3.277v1.639H96Z" transform="translate(-72.529 -77.709)" fill="#fff"/>
    <path id="Path_122" data-name="Path 122" d="M120,84h3.277v1.639H120Z" transform="translate(-93.251 -56.987)" fill="#fff"/>
    <path id="Path_123" data-name="Path 123" d="M48,84h3.277v1.639H48Z" transform="translate(-31.084 -56.987)" fill="#fff"/>
    <path id="Path_124" data-name="Path 124" d="M37.665,18H19.639A1.641,1.641,0,0,0,18,19.639v9.013h1.639v-4.1H37.665v13.11H28.652V39.3h9.013A1.641,1.641,0,0,0,39.3,37.665V19.639A1.641,1.641,0,0,0,37.665,18Zm0,4.916H19.639V19.639H37.665Z" transform="translate(-5.181)" fill="#fff"/>
  </g>
</svg>
