<svg xmlns="http://www.w3.org/2000/svg" width="47.36" height="47.36" viewBox="0 0 47.36 47.36">
  <g id="shape" transform="translate(-209.853 -409.853)">
    <path id="Bk_circle_bkgd" data-name="Bk circle bkgd" d="M229.812,860.809a23.68,23.68,0,1,1,23.68-23.68,23.68,23.68,0,0,1-23.68,23.68Z" transform="translate(3.721 -403.596)" fill="#333"/>
    <g id="Account_icon" data-name="Account icon" transform="translate(223.114 422.167)">
      <path id="Path_220" data-name="Path 220" d="M242.69,848.566A6.308,6.308,0,1,1,249,842.257,6.308,6.308,0,0,1,242.69,848.566Zm0-11.618a5.31,5.31,0,1,0,5.311,5.31A5.31,5.31,0,0,0,242.69,836.948Z" transform="translate(-232.12 -835.95)" fill="#fff"/>
      <path id="Path_221" data-name="Path 221" d="M230.785,865.909v-4.973a3.252,3.252,0,0,1,3.247-3.249h12.645a3.252,3.252,0,0,1,3.248,3.249v4.973h1v-4.973a4.251,4.251,0,0,0-4.246-4.247H234.033a4.25,4.25,0,0,0-4.245,4.247v4.973Z" transform="translate(-229.788 -843.278)" fill="#fff"/>
    </g>
  </g>
</svg>
